<svg xmlns="http://www.w3.org/2000/svg" version="1.1" xmlns:xlink="http://www.w3.org/1999/xlink" xmlns:svgjs="http://svgjs.com/svgjs" width="512" height="512" x="0" y="0" viewBox="0 0 512 512" style="enable-background:new 0 0 512 512" xml:space="preserve" class=""><g><path xmlns="http://www.w3.org/2000/svg" d="m0 75v362c0 6.882812 4.683594 12.882812 11.363281 14.550781l58.636719 14.660157 60-30.210938 70 62.710938 51.363281 12.839843c1.191407.300781 2.414063.449219 3.636719.449219s2.445312-.148438 3.636719-.449219l240-60c6.679687-1.667969 11.363281-7.667969 11.363281-14.550781v-362l-255 63.75zm0 0" fill="#505050" data-original="#505050" class=""></path><path xmlns="http://www.w3.org/2000/svg" d="m255 138.75v373.25c1.222656 0 2.445312-.148438 3.636719-.449219l240-60c6.679687-1.667969 11.363281-7.667969 11.363281-14.550781v-362zm0 0" fill="#373737" data-original="#373737" class=""></path><path xmlns="http://www.w3.org/2000/svg" d="m0 115.789062v90.921876l251.363281 62.839843c1.191407.300781 2.414063.449219 3.636719.449219s2.445312-.148438 3.636719-.449219l251.363281-62.839843v-90.921876l-255 63.75zm0 0" fill="#ffe132" data-original="#ffe132" class=""></path><path xmlns="http://www.w3.org/2000/svg" d="m258.636719 269.550781 251.363281-62.839843v-90.921876l-255 63.75v90.460938c1.222656 0 2.445312-.148438 3.636719-.449219zm0 0" fill="#fac80f" data-original="#fac80f" class=""></path><path xmlns="http://www.w3.org/2000/svg" d="m255 150c-1.222656 0-2.445312-.148438-3.636719-.449219l-240-60c-6.679687-1.667969-11.363281-7.667969-11.363281-14.550781s4.683594-12.882812 11.363281-14.550781l240-60c2.386719-.597657 4.886719-.597657 7.273438 0l240 60c6.679687 1.667969 11.363281 7.667969 11.363281 14.550781s-4.683594 12.882812-11.363281 14.550781l-240 60c-1.191407.300781-2.414063.449219-3.636719.449219zm0 0" fill="#646464" data-original="#646464"></path><path xmlns="http://www.w3.org/2000/svg" d="m258.636719 149.550781 240-60c6.679687-1.667969 11.363281-7.667969 11.363281-14.550781s-4.683594-12.882812-11.363281-14.550781l-240-60c-1.191407-.300781-2.414063-.449219-3.636719-.449219v150c1.222656 0 2.445312-.148438 3.636719-.449219zm0 0" fill="#505050" data-original="#505050" class=""></path><path xmlns="http://www.w3.org/2000/svg" d="m188.636719 334.949219-100-25c-4.480469-1.121094-9.226563-.113281-12.867188 2.726562-3.640625 2.84375-5.769531 7.207031-5.769531 11.824219v141.710938l130 32.5v-149.210938c0-6.882812-4.683594-12.882812-11.363281-14.550781zm0 0" fill="#ffe132" data-original="#ffe132" class=""></path><path xmlns="http://www.w3.org/2000/svg" d="m100 473.710938 70 17.5v-130l-70-17.5zm0 0" fill="#fac80f" data-original="#fac80f" class=""></path></g></svg>